<svg width="22" height="24" viewBox="0 0 22 24" fill="none" xmlns="http://www.w3.org/2000/svg">
    <path d="M14.75 3.56V2C14.75 1.59 14.41 1.25 14 1.25C13.59 1.25 13.25 1.59 13.25 2V3.5H6.74999V2C6.74999 1.59 6.40999 1.25 5.99999 1.25C5.58999 1.25 5.24999 1.59 5.24999 2V3.56C2.54999 3.81 1.23999 5.42 1.03999 7.81C1.01999 8.1 1.25999 8.34 1.53999 8.34H18.46C18.75 8.34 18.99 8.09 18.96 7.81C18.76 5.42 17.45 3.81 14.75 3.56Z" stroke="#0B63f8"/>
    <path d="M17 15C14.79 15 13 16.79 13 19C13 19.75 13.21 20.46 13.58 21.06C14.27 22.22 15.54 23 17 23C18.46 23 19.73 22.22 20.42 21.06C20.79 20.46 21 19.75 21 19C21 16.79 19.21 15 17 15ZM19.07 18.57L16.94 20.54C16.8 20.67 16.61 20.74 16.43 20.74C16.24 20.74 16.05 20.67 15.9 20.52L14.91 19.53C14.62 19.24 14.62 18.76 14.91 18.47C15.2 18.18 15.68 18.18 15.97 18.47L16.45 18.95L18.05 17.47C18.35 17.19 18.83 17.21 19.11 17.51C19.39 17.81 19.37 18.28 19.07 18.57Z" stroke="#0B63f8"/>
    <path d="M18 9.84H2C1.45 9.84 1 10.29 1 10.84V17C1 20 2.5 22 6 22H10.93C11.62 22 12.1 21.33 11.88 20.68C11.68 20.1 11.51 19.46 11.51 19C11.51 15.97 13.98 13.5 17.01 13.5C17.3 13.5 17.59 13.52 17.87 13.57C18.47 13.66 19.01 13.19 19.01 12.59V10.85C19 10.29 18.55 9.84 18 9.84ZM7.21 18.21C7.02 18.39 6.76 18.5 6.5 18.5C6.24 18.5 5.98 18.39 5.79 18.21C5.61 18.02 5.5 17.76 5.5 17.5C5.5 17.24 5.61 16.98 5.79 16.79C5.89 16.7 5.99 16.63 6.12 16.58C6.49 16.42 6.93 16.51 7.21 16.79C7.39 16.98 7.5 17.24 7.5 17.5C7.5 17.76 7.39 18.02 7.21 18.21ZM7.21 14.71C7.16 14.75 7.11 14.79 7.06 14.83C7 14.87 6.94 14.9 6.88 14.92C6.82 14.95 6.76 14.97 6.7 14.98C6.63 14.99 6.56 15 6.5 15C6.24 15 5.98 14.89 5.79 14.71C5.61 14.52 5.5 14.26 5.5 14C5.5 13.74 5.61 13.48 5.79 13.29C6.02 13.06 6.37 12.95 6.7 13.02C6.76 13.03 6.82 13.05 6.88 13.08C6.94 13.1 7 13.13 7.06 13.17C7.11 13.21 7.16 13.25 7.21 13.29C7.39 13.48 7.5 13.74 7.5 14C7.5 14.26 7.39 14.52 7.21 14.71ZM10.71 14.71C10.52 14.89 10.26 15 10 15C9.74 15 9.48 14.89 9.29 14.71C9.11 14.52 9 14.26 9 14C9 13.74 9.11 13.48 9.29 13.29C9.67 12.92 10.34 12.92 10.71 13.29C10.89 13.48 11 13.74 11 14C11 14.26 10.89 14.52 10.71 14.71Z" stroke="#0B63f8"/>
</svg>
