<svg width="18" height="20" viewBox="0 0 18 20" fill="none" xmlns="http://www.w3.org/2000/svg">
    <path d="M12.73 1.87519L12.73 1.87519V1.88V2.82C12.73 3.58386 12.1139 4.2 11.35 4.2H6.64001C5.87615 4.2 5.26001 3.58386 5.26001 2.82V1.88C5.26001 1.11959 5.88269 0.5 6.65001 0.5H11.35C12.1183 0.5 12.7373 1.11947 12.73 1.87519Z" stroke="#666666"/>
    <path d="M11.35 6.21001C13.2161 6.21001 14.74 4.68615 14.74 2.82001C14.74 2.65347 14.9251 2.51922 15.1077 2.61278C16.3589 3.27946 17.21 4.6023 17.21 6.12001V15.53C17.21 17.7139 15.4238 19.5 13.24 19.5H4.75998C2.57612 19.5 0.789978 17.7139 0.789978 15.53V6.12001C0.789978 4.60229 1.64111 3.27945 2.8923 2.61277C3.07484 2.51923 3.25998 2.65348 3.25998 2.82001C3.25998 4.68615 4.78383 6.21001 6.64998 6.21001H11.35ZM8.69353 15.0836L12.6935 11.0836C13.1788 10.5983 13.1788 9.80172 12.6935 9.31646C12.2083 8.83119 11.4117 8.83119 10.9264 9.31646L7.80998 12.4329L7.19353 11.8165C6.70827 11.3312 5.91169 11.3312 5.42642 11.8165C4.94116 12.3017 4.94116 13.0983 5.42642 13.5836L6.92642 15.0836C7.17513 15.3323 7.49452 15.45 7.80998 15.45C8.12543 15.45 8.44482 15.3323 8.69353 15.0836Z" stroke="#666666"/>
</svg>
