<svg width="69" height="19" viewBox="0 0 69 19" fill="none" xmlns="http://www.w3.org/2000/svg">
    <path d="M6.296 18.168C5.176 18.168 4.168 17.976 3.272 17.592C2.376 17.192 1.672 16.632 1.16 15.912C0.648 15.192 0.392 14.352 0.392 13.392H3.32C3.384 14.112 3.664 14.704 4.16 15.168C4.672 15.632 5.384 15.864 6.296 15.864C7.24 15.864 7.976 15.64 8.504 15.192C9.032 14.728 9.296 14.136 9.296 13.416C9.296 12.856 9.128 12.4 8.792 12.048C8.472 11.696 8.064 11.424 7.568 11.232C7.088 11.04 6.416 10.832 5.552 10.608C4.464 10.32 3.576 10.032 2.888 9.744C2.216 9.44 1.64 8.976 1.16 8.352C0.68 7.728 0.44 6.896 0.44 5.856C0.44 4.896 0.68 4.056 1.16 3.336C1.64 2.616 2.312 2.064 3.176 1.68C4.04 1.296 5.04 1.104 6.176 1.104C7.792 1.104 9.112 1.512 10.136 2.328C11.176 3.128 11.752 4.232 11.864 5.64H8.84C8.792 5.032 8.504 4.512 7.976 4.08C7.448 3.648 6.752 3.432 5.888 3.432C5.104 3.432 4.464 3.632 3.968 4.032C3.472 4.432 3.224 5.008 3.224 5.76C3.224 6.272 3.376 6.696 3.68 7.032C4 7.352 4.4 7.608 4.88 7.8C5.36 7.992 6.016 8.2 6.848 8.424C7.952 8.728 8.848 9.032 9.536 9.336C10.24 9.64 10.832 10.112 11.312 10.752C11.808 11.376 12.056 12.216 12.056 13.272C12.056 14.12 11.824 14.92 11.36 15.672C10.912 16.424 10.248 17.032 9.368 17.496C8.504 17.944 7.48 18.168 6.296 18.168ZM14.3724 11.328C14.3724 10 14.6444 8.824 15.1884 7.8C15.7484 6.776 16.5004 5.984 17.4444 5.424C18.4044 4.848 19.4604 4.56 20.6124 4.56C21.6524 4.56 22.5564 4.768 23.3244 5.184C24.1084 5.584 24.7324 6.088 25.1964 6.696V4.776H27.9564V18H25.1964V16.032C24.7324 16.656 24.1004 17.176 23.3004 17.592C22.5004 18.008 21.5884 18.216 20.5644 18.216C19.4284 18.216 18.3884 17.928 17.4444 17.352C16.5004 16.76 15.7484 15.944 15.1884 14.904C14.6444 13.848 14.3724 12.656 14.3724 11.328ZM25.1964 11.376C25.1964 10.464 25.0044 9.672 24.6204 9C24.2524 8.328 23.7644 7.816 23.1564 7.464C22.5484 7.112 21.8924 6.936 21.1884 6.936C20.4844 6.936 19.8284 7.112 19.2204 7.464C18.6124 7.8 18.1164 8.304 17.7324 8.976C17.3644 9.632 17.1804 10.416 17.1804 11.328C17.1804 12.24 17.3644 13.04 17.7324 13.728C18.1164 14.416 18.6124 14.944 19.2204 15.312C19.8444 15.664 20.5004 15.84 21.1884 15.84C21.8924 15.84 22.5484 15.664 23.1564 15.312C23.7644 14.96 24.2524 14.448 24.6204 13.776C25.0044 13.088 25.1964 12.288 25.1964 11.376ZM34.286 0.24V18H31.55V0.24H34.286ZM49.9981 11.064C49.9981 11.56 49.9661 12.008 49.9021 12.408H39.7981C39.8781 13.464 40.2701 14.312 40.9741 14.952C41.6781 15.592 42.5421 15.912 43.5661 15.912C45.0381 15.912 46.0781 15.296 46.6861 14.064H49.6381C49.2381 15.28 48.5101 16.28 47.4541 17.064C46.4141 17.832 45.1181 18.216 43.5661 18.216C42.3021 18.216 41.1661 17.936 40.1581 17.376C39.1661 16.8 38.3821 16 37.8061 14.976C37.2461 13.936 36.9661 12.736 36.9661 11.376C36.9661 10.016 37.2381 8.824 37.7821 7.8C38.3421 6.76 39.1181 5.96 40.1101 5.4C41.1181 4.84 42.2701 4.56 43.5661 4.56C44.8141 4.56 45.9261 4.832 46.9021 5.376C47.8781 5.92 48.6381 6.688 49.1821 7.68C49.7261 8.656 49.9981 9.784 49.9981 11.064ZM47.1421 10.2C47.1261 9.192 46.7661 8.384 46.0621 7.776C45.3581 7.168 44.4861 6.864 43.4461 6.864C42.5021 6.864 41.6941 7.168 41.0221 7.776C40.3501 8.368 39.9501 9.176 39.8221 10.2H47.1421ZM57.4906 18.216C56.4506 18.216 55.5146 18.032 54.6826 17.664C53.8666 17.28 53.2186 16.768 52.7386 16.128C52.2586 15.472 52.0026 14.744 51.9706 13.944H54.8026C54.8506 14.504 55.1146 14.976 55.5946 15.36C56.0906 15.728 56.7066 15.912 57.4426 15.912C58.2106 15.912 58.8026 15.768 59.2186 15.48C59.6506 15.176 59.8666 14.792 59.8666 14.328C59.8666 13.832 59.6266 13.464 59.1466 13.224C58.6826 12.984 57.9386 12.72 56.9146 12.432C55.9226 12.16 55.1146 11.896 54.4906 11.64C53.8666 11.384 53.3226 10.992 52.8586 10.464C52.4106 9.936 52.1866 9.24 52.1866 8.376C52.1866 7.672 52.3946 7.032 52.8106 6.456C53.2266 5.864 53.8186 5.4 54.5866 5.064C55.3706 4.728 56.2666 4.56 57.2746 4.56C58.7786 4.56 59.9866 4.944 60.8986 5.712C61.8266 6.464 62.3226 7.496 62.3866 8.808H59.6506C59.6026 8.216 59.3626 7.744 58.9306 7.392C58.4986 7.04 57.9146 6.864 57.1786 6.864C56.4586 6.864 55.9066 7 55.5226 7.272C55.1386 7.544 54.9466 7.904 54.9466 8.352C54.9466 8.704 55.0746 9 55.3306 9.24C55.5866 9.48 55.8986 9.672 56.2666 9.816C56.6346 9.944 57.1786 10.112 57.8986 10.32C58.8586 10.576 59.6426 10.84 60.2506 11.112C60.8746 11.368 61.4106 11.752 61.8586 12.264C62.3066 12.776 62.5386 13.456 62.5546 14.304C62.5546 15.056 62.3466 15.728 61.9306 16.32C61.5146 16.912 60.9226 17.376 60.1546 17.712C59.4026 18.048 58.5146 18.216 57.4906 18.216ZM66.6149 18.168C66.1189 18.168 65.7029 18 65.3669 17.664C65.0309 17.328 64.8629 16.912 64.8629 16.416C64.8629 15.92 65.0309 15.504 65.3669 15.168C65.7029 14.832 66.1189 14.664 66.6149 14.664C67.0949 14.664 67.5029 14.832 67.8389 15.168C68.1749 15.504 68.3429 15.92 68.3429 16.416C68.3429 16.912 68.1749 17.328 67.8389 17.664C67.5029 18 67.0949 18.168 66.6149 18.168Z" fill="#013CC6"/>
</svg>
