<svg width="20" height="22" viewBox="0 0 20 22" fill="none" xmlns="http://www.w3.org/2000/svg">
    <path d="M17.96 7.96001C17.29 7.22001 16.28 6.79001 14.88 6.64001V5.88001C14.88 4.51001 14.3 3.19001 13.28 2.27001C12.25 1.33001 10.91 0.890007 9.51999 1.02001C7.12999 1.25001 5.11999 3.56001 5.11999 6.06001V6.64001C3.71999 6.79001 2.70999 7.22001 2.03999 7.96001C1.06999 9.04001 1.09999 10.48 1.20999 11.48L1.90999 17.05C2.11999 19 2.90999 21 7.20999 21H12.79C17.09 21 17.88 19 18.09 17.06L18.79 11.47C18.9 10.48 18.93 9.04001 17.96 7.96001ZM9.65999 2.41001C10.66 2.32001 11.61 2.63001 12.35 3.30001C13.08 3.96001 13.49 4.90001 13.49 5.88001V6.58001H6.50999V6.06001C6.50999 4.28001 7.97999 2.57001 9.65999 2.41001ZM9.99999 17.58C7.90999 17.58 6.20999 15.88 6.20999 13.79C6.20999 11.7 7.90999 10 9.99999 10C12.09 10 13.79 11.7 13.79 13.79C13.79 15.88 12.09 17.58 9.99999 17.58Z" stroke="#666666"/>
    <path d="M9.43001 15.64C9.24001 15.64 9.05 15.57 8.9 15.42L7.91 14.43C7.62 14.14 7.62 13.66 7.91 13.37C8.2 13.08 8.68001 13.08 8.97001 13.37L9.45 13.85L11.05 12.37C11.35 12.09 11.83 12.11 12.11 12.41C12.39 12.71 12.37 13.19 12.07 13.47L9.94 15.44C9.79 15.57 9.61001 15.64 9.43001 15.64Z" stroke="#666666"/>
</svg>
