<svg width="22" height="18" viewBox="0 0 22 18" fill="none" xmlns="http://www.w3.org/2000/svg">
    <path d="M16 0.5H6C3 0.5 1 2 1 5.5V12.5C1 16 3 17.5 6 17.5H16C19 17.5 21 16 21 12.5V5.5C21 2 19 0.5 16 0.5ZM16.47 6.59L13.34 9.09C12.68 9.62 11.84 9.88 11 9.88C10.16 9.88 9.31 9.62 8.66 9.09L5.53 6.59C5.21 6.33 5.16 5.85 5.41 5.53C5.67 5.21 6.14 5.15 6.46 5.41L9.59 7.91C10.35 8.52 11.64 8.52 12.4 7.91L15.53 5.41C15.85 5.15 16.33 5.2 16.58 5.53C16.84 5.85 16.79 6.33 16.47 6.59Z" stroke="#666666"/>
</svg>
