<svg width="20" height="22" viewBox="0 0 20 22" fill="none" xmlns="http://www.w3.org/2000/svg">
    <path d="M12.85 2.95V6.75H11.35V2.95C11.35 2.68 11.11 2.55 10.95 2.55C10.9 2.55 10.85 2.56 10.8 2.58L2.87 5.57C2.34 5.77 2 6.27 2 6.84V7.51C1.09 8.19 0.5 9.28 0.5 10.51V6.84C0.5 5.65 1.23 4.59 2.34 4.17L10.28 1.17C10.5 1.09 10.73 1.05 10.95 1.05C11.95 1.05 12.85 1.86 12.85 2.95Z" stroke="#0B63f8"/>
    <path d="M19.5 13.5V14.5C19.5 14.77 19.29 14.99 19.01 15H17.55C17.02 15 16.54 14.61 16.5 14.09C16.47 13.78 16.59 13.49 16.79 13.29C16.97 13.1 17.22 13 17.49 13H19C19.29 13.01 19.5 13.23 19.5 13.5Z" fill="#0B63f8"/>
    <path d="M17.48 11.95H18.5C19.05 11.95 19.5 11.5 19.5 10.95V10.51C19.5 8.44 17.81 6.75 15.74 6.75H4.26C3.41 6.75 2.63 7.03 2 7.51C1.09 8.19 0.5 9.28 0.5 10.51V17.24C0.5 19.31 2.19 21 4.26 21H15.74C17.81 21 19.5 19.31 19.5 17.24V17.05C19.5 16.5 19.05 16.05 18.5 16.05H17.63C16.67 16.05 15.75 15.46 15.5 14.53C15.29 13.77 15.54 13.04 16.04 12.55C16.41 12.17 16.92 11.95 17.48 11.95ZM12 11.75H5C4.59 11.75 4.25 11.41 4.25 11C4.25 10.59 4.59 10.25 5 10.25H12C12.41 10.25 12.75 10.59 12.75 11C12.75 11.41 12.41 11.75 12 11.75Z" stroke="#0B63f8"/>
</svg>
