<svg width="22" height="22" viewBox="0 0 22 22" fill="none" xmlns="http://www.w3.org/2000/svg">
    <path d="M11.0001 1.24994C9.07176 1.24994 7.1867 1.82177 5.58332 2.89311C3.97994 3.96445 2.73026 5.4872 1.9923 7.26878C1.25435 9.05036 1.06126 11.0108 1.43747 12.9021C1.81368 14.7934 2.74227 16.5307 4.10584 17.8942C5.4694 19.2578 7.20668 20.1864 9.098 20.5626C10.9893 20.9388 12.9497 20.7457 14.7313 20.0078C16.5129 19.2698 18.0356 18.0201 19.107 16.4167C20.1783 14.8134 20.7501 12.9283 20.7501 10.9999C20.7472 8.41498 19.719 5.93672 17.8912 4.10888C16.0633 2.28103 13.5851 1.25286 11.0001 1.24994V1.24994ZM11.0002 17C10.7777 17 10.5602 16.934 10.3752 16.8104C10.1902 16.6868 10.046 16.5111 9.96081 16.3055C9.87566 16.0999 9.85339 15.8737 9.89679 15.6555C9.9402 15.4373 10.0473 15.2368 10.2047 15.0795C10.362 14.9221 10.5625 14.815 10.7807 14.7716C10.9989 14.7282 11.2251 14.7505 11.4307 14.8356C11.6363 14.9208 11.812 15.065 11.9356 15.25C12.0592 15.435 12.1252 15.6525 12.1252 15.875C12.1252 16.1733 12.0067 16.4595 11.7957 16.6705C11.5847 16.8814 11.2985 17 11.0002 17ZM11.7501 12.4164V12.5004C11.7501 12.6993 11.6711 12.8901 11.5305 13.0307C11.3898 13.1714 11.199 13.2504 11.0001 13.2504C10.8012 13.2504 10.6105 13.1714 10.4698 13.0307C10.3291 12.8901 10.2501 12.6993 10.2501 12.5004V11.7504C10.2501 11.5515 10.3292 11.3607 10.4698 11.2201C10.6105 11.0794 10.8012 11.0004 11.0001 11.0004C11.371 11.0004 11.7335 10.8904 12.0418 10.6844C12.3502 10.4784 12.5905 10.1855 12.7324 9.84293C12.8743 9.50032 12.9115 9.12332 12.8391 8.7596C12.7668 8.39589 12.5882 8.06179 12.326 7.79957C12.0637 7.53735 11.7296 7.35877 11.3659 7.28642C11.0022 7.21408 10.6252 7.25121 10.2826 7.39312C9.93999 7.53504 9.64715 7.77536 9.44113 8.0837C9.2351 8.39204 9.12513 8.75456 9.12513 9.1254C9.12513 9.32431 9.04611 9.51507 8.90546 9.65573C8.76481 9.79638 8.57404 9.8754 8.37513 9.8754C8.17622 9.8754 7.98545 9.79638 7.8448 9.65573C7.70415 9.51507 7.62513 9.32431 7.62513 9.1254C7.62521 8.49008 7.80462 7.86768 8.14271 7.32979C8.4808 6.7919 8.96385 6.36036 9.5363 6.08481C10.1088 5.80925 10.7474 5.70087 11.3787 5.77213C12.01 5.84338 12.6084 6.09138 13.105 6.48761C13.6016 6.88383 13.9763 7.41218 14.186 8.0119C14.3957 8.61162 14.4318 9.25835 14.2903 9.8777C14.1488 10.4971 13.8353 11.0639 13.3859 11.513C12.9366 11.9621 12.3696 12.2753 11.7501 12.4164Z" stroke="#666666"/>
</svg>
