<svg width="22" height="20" viewBox="0 0 22 20" fill="none" xmlns="http://www.w3.org/2000/svg">
    <path d="M19.1 7.22C17.29 7.22 16.55 5.94 17.45 4.37C17.97 3.46 17.66 2.3 16.75 1.78L15.02 0.790001C14.23 0.320001 13.21 0.600001 12.74 1.39L12.63 1.58C11.73 3.15 10.25 3.15 9.34 1.58L9.23 1.39C8.78 0.600001 7.76 0.320001 6.97 0.790001L5.24 1.78C4.33 2.3 4.02 3.47 4.54 4.38C5.45 5.94 4.71 7.22 2.9 7.22C1.86 7.22 1 8.07 1 9.12V10.88C1 11.92 1.85 12.78 2.9 12.78C4.71 12.78 5.45 14.06 4.54 15.63C4.02 16.54 4.33 17.7 5.24 18.22L6.97 19.21C7.76 19.68 8.78 19.4 9.25 18.61L9.36 18.42C10.26 16.85 11.74 16.85 12.65 18.42L12.76 18.61C13.23 19.4 14.25 19.68 15.04 19.21L16.77 18.22C17.68 17.7 17.99 16.53 17.47 15.63C16.56 14.06 17.3 12.78 19.11 12.78C20.15 12.78 21.01 11.93 21.01 10.88V9.12C21 8.08 20.15 7.22 19.1 7.22ZM11 13.25C9.21 13.25 7.75 11.79 7.75 10C7.75 8.21 9.21 6.75 11 6.75C12.79 6.75 14.25 8.21 14.25 10C14.25 11.79 12.79 13.25 11 13.25Z" stroke="#666666"/>
</svg>
